<?xml version="1.0" encoding="UTF-8"?><svg xmlns="http://www.w3.org/2000/svg" version="1" width="24" height="24" viewBox="0 0 24 24"><path d="M2.2 9.4c0 1.3.2 3.3 2 5.1 1.6 1.6 6.9 5.2 7.1 5.4.2.1.4.2.6.2s.4-.1.6-.2c.2-.2 5.5-3.7 7.1-5.4 1.8-1.8 2-3.8 2-5.1 0-3-2.4-5.4-5.4-5.4-1.6 0-3.2.9-4.2 2.3C11 4.9 9.4 4 7.6 4 4.7 4 2.2 6.4 2.2 9.4z"/><metadata><rdf:RDF xmlns:rdf="http://www.w3.org/1999/02/22-rdf-syntax-ns#" xmlns:rdfs="http://www.w3.org/2000/01/rdf-schema#" xmlns:dc="http://purl.org/dc/elements/1.1/"><rdf:Description about="https://iconscout.com/legal#licenses" dc:title="heart,full,outline" dc:description="heart,full,outline" dc:publisher="Iconscout" dc:date="2017-09-24" dc:format="image/svg+xml" dc:language="en"><dc:creator><rdf:Bag><rdf:li>Typicons</rdf:li></rdf:Bag></dc:creator></rdf:Description></rdf:RDF></metadata></svg>